HIERARCHY
ROOT Hips
{
	OFFSET 0.000000 0.000000 0.000000
	CHANNELS 6 Xposition Yposition Zposition Xrotation Yrotation Zrotation
	JOINT LeftUpLeg_virtual
	{
		OFFSET 0.000000 0.000000 0.000000
		CHANNELS 3 Xrotation Yrotation Zrotation
		JOINT LeftUpLeg
		{
			OFFSET 15.427100 -6.655098 0.678600
			CHANNELS 3 Xrotation Yrotation Zrotation
			JOINT LeftLeg
			{
				OFFSET 4.081073 -39.591068 13.024000
				CHANNELS 3 Xrotation Yrotation Zrotation
				JOINT LeftFoot
				{
					OFFSET -4.081074 -37.707932 -15.979700
					CHANNELS 3 Xrotation Yrotation Zrotation
					JOINT LeftToeBase
					{
						OFFSET 5.346399 -15.068900 20.645000
						CHANNELS 3 Xrotation Yrotation Zrotation
						JOINT LeftToe_End
						{
							OFFSET 2.754700 0.931300 11.300900
							CHANNELS 3 Xrotation Yrotation Zrotation
							End Site
							{
								OFFSET 0 0 0
							}
						}
					}
				}
			}
		}
	}
	JOINT RightUpLeg_virtual
	{
		OFFSET 0.000000 0.000000 0.000000
		CHANNELS 3 Xrotation Yrotation Zrotation
		JOINT RightUpLeg
		{
			OFFSET -15.569500 -6.655098 0.678600
			CHANNELS 3 Xrotation Yrotation Zrotation
			JOINT RightLeg
			{
				OFFSET -4.081825 -39.591045 13.023800
				CHANNELS 3 Xrotation Yrotation Zrotation
				JOINT RightFoot
				{
					OFFSET 4.081824 -37.707954 -15.979600
					CHANNELS 3 Xrotation Yrotation Zrotation
					JOINT RightToeBase
					{
						OFFSET -5.346400 -15.068900 20.645000
						CHANNELS 3 Xrotation Yrotation Zrotation
						JOINT RightToe_End
						{
							OFFSET -2.754700 0.931300 11.300900
							CHANNELS 3 Xrotation Yrotation Zrotation
							End Site
							{
								OFFSET 0 0 0
							}
						}
					}
				}
			}
		}
	}
	JOINT Spine_virtual
	{
		OFFSET 0.000000 0.000000 0.000000
		CHANNELS 3 Xrotation Yrotation Zrotation
		JOINT Spine
		{
			OFFSET -0.279200 12.230698 -2.892100
			CHANNELS 3 Xrotation Yrotation Zrotation
			JOINT Spine1
			{
				OFFSET -0.232667 10.192268 -1.242267
				CHANNELS 3 Xrotation Yrotation Zrotation
				JOINT Spine1_split
				{
					OFFSET -0.232667 10.192268 -1.242267
					CHANNELS 3 Xrotation Yrotation Zrotation
					JOINT Spine2
					{
						OFFSET -0.232667 10.192268 -1.242267
						CHANNELS 3 Xrotation Yrotation Zrotation
						JOINT Neck_virtual
						{
							OFFSET 0.000000 0.000000 0.000000
							CHANNELS 3 Xrotation Yrotation Zrotation
							JOINT Neck
							{
								OFFSET -0.418800 17.814194 8.416900
								CHANNELS 3 Xrotation Yrotation Zrotation
								JOINT Head
								{
									OFFSET 0.000000 7.031097 3.806800
									CHANNELS 3 Xrotation Yrotation Zrotation
									JOINT HeadTop_End
									{
										OFFSET 0.000000 24.646606 12.978600
										CHANNELS 3 Xrotation Yrotation Zrotation
										End Site
										{
											OFFSET 0 0 0
										}
									}
								}
							}
						}
						JOINT LeftShoulder_virtual
						{
							OFFSET 0.000000 0.000000 0.000000
							CHANNELS 3 Xrotation Yrotation Zrotation
							JOINT LeftShoulder
							{
								OFFSET 8.476499 7.247704 -3.868750
								CHANNELS 3 Xrotation Yrotation Zrotation
								JOINT LeftShoulder_split
								{
									OFFSET 8.476499 7.247704 -3.868750
									CHANNELS 3 Xrotation Yrotation Zrotation
									JOINT LeftArm
									{
										OFFSET 9.308998 -2.777710 0.208600
										CHANNELS 3 Xrotation Yrotation Zrotation
										JOINT LeftForeArm
										{
											OFFSET 29.972298 0.000000 0.000000
											CHANNELS 3 Xrotation Yrotation Zrotation
											JOINT LeftHand
											{
												OFFSET 26.026505 0.000000 0.000000
												CHANNELS 3 Xrotation Yrotation Zrotation
												End Site
												{
													OFFSET 0 0 0
												}
											}
										}
									}
								}
							}
						}
						JOINT RightShoulder_virtual
						{
							OFFSET 0.000000 0.000000 0.000000
							CHANNELS 3 Xrotation Yrotation Zrotation
							JOINT RightShoulder
							{
								OFFSET -7.570500 7.247704 -3.868750
								CHANNELS 3 Xrotation Yrotation Zrotation
								JOINT RightShoulder_split
								{
									OFFSET -7.570500 7.247704 -3.868750
									CHANNELS 3 Xrotation Yrotation Zrotation
									JOINT RightArm
									{
										OFFSET -9.308998 -2.777710 0.208500
										CHANNELS 3 Xrotation Yrotation Zrotation
										JOINT RightForeArm
										{
											OFFSET -29.972300 0.000000 0.000000
											CHANNELS 3 Xrotation Yrotation Zrotation
											JOINT RightHand
											{
												OFFSET -26.026505 0.000000 0.000000
												CHANNELS 3 Xrotation Yrotation Zrotation
												End Site
												{
													OFFSET 0 0 0
												}
											}
										}
									}
								}
							}
						}
					}
				}
			}
		}
	}
}
MOTION
Frames: 7
Frame Time: 0.03333333
1.488457 92.150833 -2.245853 0.000000 0.000000 0.000000 -3.084532 5.435214 -2.081115 -6.553970 9.671250 14.546782 16.122260 -4.072987 -1.263147 -8.975255 2.794416 -8.111575 2.198851 0.331631 -2.675260 0.000000 0.000000 0.000000 -2.726149 6.096490 -2.248385 -8.767995 -3.443217 -3.557043 13.513979 4.418884 2.392035 -2.109608 0.195185 -1.570243 0.742925 0.289551 0.769079 0.000000 0.000000 0.000000 -3.215870 8.509859 -2.240333 8.369665 -0.818636 1.365519 2.565139 0.224801 -0.420645 0.091434 -1.685530 0.990806 0.000000 0.000000 0.000000 -3.889778 -0.005659 0.267500 -0.180406 0.679048 0.139089 4.375344 -2.091366 -1.171488 0.000000 0.000000 0.000000 -4.005483 -0.316750 0.314541 0.601764 -2.518094 -7.411274 -2.331783 -2.514148 0.601749 5.269624 -3.240735 -72.846734 5.075700 -12.144230 1.515041 0.000000 0.000000 0.000000 -4.602061 -0.669827 0.291108 0.483153 7.931670 6.070324 -4.087785 -1.669127 -0.363035 4.668194 13.265696 74.542028 17.762351 18.779796 -3.604772 0.000000 0.000000 0.000000 
1.508083 92.245598 -2.102215 0.000000 0.000000 0.000000 -2.915073 5.261214 -2.111616 -6.516540 9.649176 14.700488 15.784289 -3.921003 -1.372184 -9.245277 2.619174 -7.898613 2.445887 0.322442 -2.662664 0.000000 0.000000 0.000000 -2.664881 5.786903 -2.247964 -8.737028 -3.305379 -3.448825 13.654778 4.475244 2.351236 -2.228123 0.354345 -1.779616 1.100086 0.262034 0.819613 0.000000 0.000000 0.000000 -2.803727 8.414885 -2.250619 8.483949 -0.770062 1.397646 2.583335 0.167301 -0.445891 0.405479 -2.053227 0.978892 0.000000 0.000000 0.000000 -3.887750 -0.015966 0.248091 -0.165429 0.814287 0.047913 4.517231 -2.258305 -1.064784 0.000000 0.000000 0.000000 -3.991445 -0.361760 0.293537 0.638844 -2.748761 -7.525634 -2.163091 -2.482059 0.827060 5.049212 -3.127302 -72.979253 5.043752 -12.261392 1.460166 0.000000 0.000000 0.000000 -4.599539 -0.680170 0.312765 0.522512 7.922541 6.177817 -4.033661 -1.697134 -0.522336 4.772344 13.113516 74.496784 17.753765 18.996844 -3.637471 0.000000 0.000000 0.000000 
1.498771 92.295601 -1.962543 0.000000 0.000000 0.000000 -2.782568 4.963902 -2.167373 -6.528119 9.662206 14.960016 15.498551 -3.704653 -1.310471 -9.435929 2.329363 -7.942528 2.628101 0.292182 -2.533501 0.000000 0.000000 0.000000 -2.578341 5.475747 -2.298419 -8.955175 -3.152372 -3.275733 13.964142 4.580130 2.348285 -2.293332 0.560993 -2.046681 1.312819 0.239942 0.800301 0.000000 0.000000 0.000000 -2.419546 8.114899 -2.260635 8.791105 -0.706130 1.482401 2.516792 0.114698 -0.458596 0.558986 -2.261613 0.866179 0.000000 0.000000 0.000000 -3.898690 -0.038112 0.242332 -0.083657 1.027705 -0.043276 4.539854 -2.371225 -1.058004 0.000000 0.000000 0.000000 -4.017168 -0.416225 0.291097 0.671100 -3.098231 -7.667739 -1.953673 -2.365711 1.110009 4.821660 -2.950946 -73.049358 5.128582 -12.317923 1.344034 0.000000 0.000000 0.000000 -4.639764 -0.709690 0.337364 0.547773 7.820846 6.443048 -3.997582 -1.646191 -0.733239 5.033847 13.301019 74.140187 17.676775 19.265448 -3.638062 0.000000 0.000000 0.000000 
1.460599 92.263306 -1.814697 0.000000 0.000000 0.000000 -2.699913 4.665946 -2.218492 -6.483103 9.662951 15.232242 15.332697 -3.479670 -1.122698 -9.531590 1.965128 -8.252330 2.639866 0.247043 -2.273637 0.000000 0.000000 0.000000 -2.488419 5.148882 -2.357605 -9.429210 -3.073011 -3.101847 14.428213 4.746046 2.416424 -2.202844 0.798894 -2.289834 1.259403 0.221371 0.721179 0.000000 0.000000 0.000000 -2.126821 7.604429 -2.239691 9.217397 -0.643209 1.564269 2.358164 0.066670 -0.441663 0.505879 -2.296830 0.747560 0.000000 0.000000 0.000000 -3.907848 -0.068512 0.260000 0.062556 1.284247 -0.123549 4.433160 -2.448907 -1.122426 0.000000 0.000000 0.000000 -4.079326 -0.474554 0.319011 0.702970 -3.475381 -7.814703 -1.919021 -2.158594 1.260544 4.608816 -2.756421 -73.033717 5.336698 -12.270191 1.188183 0.000000 0.000000 0.000000 -4.724279 -0.757024 0.375580 0.564350 7.633983 6.818913 -4.001760 -1.570321 -0.997959 5.419725 13.805717 73.518872 17.525514 19.546229 -3.604317 0.000000 0.000000 0.000000 
1.374648 92.178909 -1.618351 0.000000 0.000000 0.000000 -2.641220 4.366173 -2.234638 -6.221272 9.651537 15.425796 15.258393 -3.206571 -0.880658 -9.614628 1.608286 -8.643586 2.509444 0.197643 -1.978717 0.000000 0.000000 0.000000 -2.391957 4.732757 -2.387720 -10.148414 -3.137069 -3.013854 15.013010 4.985925 2.563852 -1.867667 1.060444 -2.430851 0.990742 0.205867 0.610111 0.000000 0.000000 0.000000 -1.939761 6.900103 -2.172917 9.658982 -0.602205 1.597076 2.132270 0.020086 -0.382119 0.396911 -2.185497 0.679764 0.000000 0.000000 0.000000 -3.907024 -0.110005 0.313775 0.236379 1.560626 -0.153946 4.206624 -2.509042 -1.228205 0.000000 0.000000 0.000000 -4.166037 -0.532854 0.383961 0.735360 -3.808383 -7.975915 -2.081669 -1.884068 1.229291 4.404201 -2.563064 -72.916217 5.654098 -12.089793 1.013406 0.000000 0.000000 0.000000 -4.831823 -0.818563 0.445046 0.590746 7.361207 7.235138 -3.986061 -1.530520 -1.298026 5.886291 14.570440 72.700793 17.306596 19.785982 -3.540758 0.000000 0.000000 0.000000 
1.229695 92.081444 -1.428188 0.000000 0.000000 0.000000 -2.585776 4.007306 -2.201233 -5.739325 9.571768 15.519913 15.122584 -2.836103 -0.654529 -9.768287 1.362245 -8.993839 2.415481 0.146825 -1.789386 0.000000 0.000000 0.000000 -2.265181 4.186877 -2.369302 -11.040734 -3.336858 -3.014431 15.658069 5.306139 2.776898 -1.364717 1.329789 -2.484651 0.699845 0.200608 0.499913 0.000000 0.000000 0.000000 -1.797750 6.035696 -2.094455 9.999460 -0.582895 1.565509 1.874628 -0.038048 -0.270530 0.276319 -1.936342 0.647471 0.000000 0.000000 0.000000 -3.893166 -0.164760 0.409525 0.366954 1.845302 -0.095364 3.862106 -2.575353 -1.332270 0.000000 0.000000 0.000000 -4.268011 -0.594168 0.490687 0.761875 -4.042041 -8.148190 -2.329739 -1.566859 1.053494 4.198962 -2.377975 -72.685371 6.050655 -11.752671 0.826755 0.000000 0.000000 0.000000 -4.932927 -0.888299 0.553924 0.644219 7.020988 7.618841 -3.969040 -1.516161 -1.572929 6.394240 15.486178 71.772229 17.041518 19.948700 -3.459654 0.000000 0.000000 0.000000 
1.066258 91.960564 -1.303917 0.000000 0.000000 0.000000 -2.498208 3.572667 -2.137211 -5.072224 9.410729 15.529140 14.739553 -2.236814 -0.497867 -10.044654 1.291948 -9.315312 2.484134 0.090073 -1.790792 0.000000 0.000000 0.000000 -2.063350 3.492667 -2.322904 -12.005387 -3.579051 -3.036917 16.319846 5.685896 2.999008 -0.904861 1.589916 -2.560782 0.620933 0.214859 0.427036 0.000000 0.000000 0.000000 -1.635796 5.026076 -2.043187 10.185177 -0.588376 1.471719 1.633919 -0.114496 -0.119966 0.281217 -1.636284 0.676494 0.000000 0.000000 0.000000 -3.862482 -0.231777 0.539497 0.412216 2.136627 0.059233 3.470610 -2.627698 -1.408697 0.000000 0.000000 0.000000 -4.364989 -0.670180 0.626629 0.777358 -4.158375 -8.340728 -2.575783 -1.282013 0.826247 4.046295 -2.142988 -72.353690 6.475509 -11.305333 0.626437 0.000000 0.000000 0.000000 -5.015519 -0.965811 0.703329 0.728529 6.631789 7.951209 -3.902517 -1.499311 -1.772527 6.877217 16.467047 70.820770 16.752769 20.006987 -3.377180 0.000000 0.000000 0.000000 
